<svg width="698" height="699" viewBox="0 0 698 699" fill="none" xmlns="http://www.w3.org/2000/svg">
<path d="M136.862 212.994L348.994 135.497L561.126 212.994C561.126 212.994 320.996 146.632 348.996 290.5C376.997 434.368 136.862 212.994 136.862 212.994Z" fill="#BCE3FF"/>
<path d="M136.862 212.994L348.994 135.497L561.126 212.994C561.126 212.994 320.996 146.632 348.996 290.5C376.997 434.368 136.862 212.994 136.862 212.994Z" fill="black" fill-opacity="0.2"/>
<path d="M561.126 212.994C561.126 212.994 320.996 146.632 348.996 290.5C376.997 434.368 136.862 212.994 136.862 212.994L136.862 486C136.862 486 376.997 707.374 348.996 563.506C320.996 419.638 561.126 486 561.126 486V212.994Z" fill="#BCE3FF"/>
<path d="M561.126 212.994C561.126 212.994 320.996 146.632 348.996 290.5C376.997 434.368 136.862 212.994 136.862 212.994L136.862 486C136.862 486 376.997 707.374 348.996 563.506C320.996 419.638 561.126 486 561.126 486V212.994Z" fill="#FF4141" fill-opacity="0.2"/>
<path d="M284.76 357.2H331.8C337.2 357.2 340.44 360.08 340.44 365V435.2C340.44 439.04 337.44 443 332.64 443H300.36C299.4 443 298.92 442.4 298.92 441.68V412.16C298.92 411.32 298.44 410.84 297.72 410.84H242.28C241.68 410.84 240.84 411.32 240.24 411.92L209.76 442.64C208.44 443.84 207.12 444.32 205.44 444.32C202.44 444.32 199.44 442.28 199.44 438.44C199.44 436.76 200.04 435.44 201.24 434L273.36 361.76C276.6 358.52 279.48 357.2 284.76 357.2ZM298.92 400.28V371.96C298.92 370.88 298.44 370.16 297.84 370.16C297.48 370.16 297 370.28 296.76 370.76L268.32 399.2C267.84 399.68 267.6 400.16 267.6 400.64C267.6 401.48 268.2 401.72 269.16 401.72H297.72C298.44 401.72 298.92 401.36 298.92 400.28ZM363.003 357.2H389.043C394.323 357.2 396.843 360.44 396.843 365V390.44C396.843 391.28 397.203 391.88 398.043 391.88H408.603C409.443 391.88 409.803 391.76 410.403 391.16L440.163 361.4C443.283 358.4 445.683 357.2 450.723 357.2H477.483C481.443 357.2 483.003 359.12 483.003 362.6C483.003 364.4 482.523 365.48 481.323 366.8L455.883 392C455.763 392.48 455.523 392.96 455.523 393.44C455.523 393.68 455.763 394.04 455.883 394.4L495.723 434C496.923 435.56 497.403 437 497.403 438.44C497.403 441.56 494.643 444.32 491.283 444.32C489.723 444.32 488.283 443.84 487.323 442.64L456.363 411.68C455.883 411.2 455.283 410.84 454.323 410.84H398.043C397.203 410.84 396.843 411.32 396.843 412.16V441.68C396.843 442.4 396.363 443 395.403 443H363.003C358.323 443 355.323 439.64 355.323 435.2V365C355.323 360.44 358.323 357.2 363.003 357.2Z" fill="white"/>
</svg>
